<svg version="1.1" id="Layer_1" xmlns="http://www.w3.org/2000/svg" xmlns:xlink="http://www.w3.org/1999/xlink" x="0px" y="0px"
	 width="100%" viewBox="0 0 225 225" enable-background="new 0 0 225 225" xml:space="preserve">
<path fill="#FECC4D" opacity="1.000000" stroke="none" 
	d="
M126.000000,226.000000 
	C117.645767,226.000000 109.291534,226.000000 100.253616,225.673691 
	C99.084770,225.238113 98.602974,225.110245 98.113998,225.022217 
	C49.289162,216.233826 17.939373,188.048538 4.221155,140.351196 
	C2.956933,135.955582 2.064871,131.452942 1.000000,127.000000 
	C1.000000,118.312439 1.000000,109.624870 1.326865,100.254196 
	C4.241055,89.947838 6.828378,80.324593 9.753909,70.780396 
	C17.566254,73.133865 20.952246,78.063591 21.080229,85.981651 
	C21.156897,90.724945 22.533510,95.480591 23.602041,100.167725 
	C26.036150,110.845001 31.369543,118.974503 42.516800,122.540108 
	C52.738197,125.809563 63.115883,126.105194 73.482414,124.638931 
	C90.125801,122.284866 100.632645,113.084465 103.229980,95.898842 
	C103.824547,91.964844 104.621437,88.056801 105.456337,84.164932 
	C106.451950,79.523895 109.137428,76.848152 114.170280,77.050034 
	C118.987206,77.243271 121.235992,80.007988 122.035080,84.490959 
	C122.966789,89.717972 123.878090,94.959724 125.116402,100.118713 
	C127.799545,111.297066 134.410187,118.989571 145.564926,122.537270 
	C156.587906,126.043060 167.678055,126.302834 179.024002,124.152443 
	C192.401733,121.616974 200.762787,114.076927 203.722092,100.783936 
	C204.947220,95.280739 206.456009,89.713249 206.637573,84.135986 
	C206.889877,76.385857 211.087692,72.821434 217.891022,71.316566 
	C218.933411,74.328285 220.058624,76.921768 220.761032,79.625107 
	C222.605682,86.724525 224.266159,93.871796 226.000000,101.000000 
	C226.000000,109.354233 226.000000,117.708466 225.673676,126.746353 
	C217.214203,175.145035 190.382751,206.829895 144.198013,221.747696 
	C138.290512,223.655838 132.073578,224.606033 126.000000,226.000000 
M111.660866,195.147980 
	C113.089394,194.809021 114.517921,194.470062 116.525574,194.761902 
	C131.364548,197.257889 137.819626,193.093338 139.578110,180.105453 
	C145.263626,176.722961 151.474869,173.971786 156.495361,169.790741 
	C162.174957,165.060791 166.883301,159.132080 171.762451,153.506470 
	C172.547089,152.601791 172.020447,150.559784 172.099960,149.043549 
	C170.469025,149.017914 168.809387,148.801544 167.218384,149.041107 
	C166.322739,149.175980 165.556366,150.089325 164.704575,150.607239 
	C147.308823,161.184448 128.765045,167.661484 108.071350,166.268509 
	C90.736557,165.101624 75.210716,158.786514 60.630932,149.650024 
	C59.171104,148.735214 56.855206,149.186523 54.936607,149.003815 
	C55.184349,150.790115 54.852085,152.980209 55.770580,154.299561 
	C63.927158,166.015945 74.394699,174.971420 88.290695,180.509872 
	C88.664505,190.868622 93.125847,195.233109 103.461922,195.258087 
	C105.947716,195.264084 108.434013,195.065353 111.660866,195.147980 
z"/>
<path fill="#FECB4D" opacity="1.000000" stroke="none" 
	d="
M101.000000,1.000000 
	C109.020897,1.000000 117.041801,1.000000 125.765350,1.319717 
	C163.590714,6.839415 191.872757,25.416901 211.219238,57.571087 
	C211.831818,58.589203 212.987717,59.280426 213.676910,60.454075 
	C210.083771,60.262909 206.408829,60.420288 203.376266,59.101028 
	C191.342911,53.866146 178.844101,51.324028 165.814697,52.191593 
	C156.854279,52.788223 147.659119,52.351246 139.209183,56.483162 
	C132.281631,59.870659 125.885651,63.749783 117.484093,64.350609 
	C110.387123,64.858139 103.281418,64.672134 97.963577,61.394905 
	C81.391411,51.181980 64.004524,51.557125 45.728153,53.580647 
	C36.760719,54.573502 28.815979,57.504749 20.638750,60.576385 
	C18.777960,61.275360 16.157619,59.952278 14.107698,59.323013 
	C15.308483,57.768009 16.383795,56.509727 17.254248,55.122868 
	C32.648327,30.596096 54.035011,13.850001 81.860703,5.599617 
	C88.142784,3.736964 94.615196,2.516227 101.000000,1.000000 
z"/>
<path fill="#FFFFFE" opacity="1.000000" stroke="none" 
	d="
M126.468658,226.000000 
	C132.073578,224.606033 138.290512,223.655838 144.198013,221.747696 
	C190.382751,206.829895 217.214203,175.145035 225.673676,127.215004 
	C226.000000,159.927292 226.000000,192.854599 226.000000,226.000000 
	C192.979431,226.000000 159.958374,226.000000 126.468658,226.000000 
z"/>
<path fill="#FFFFFE" opacity="1.000000" stroke="none" 
	d="
M1.000000,127.468658 
	C2.064871,131.452942 2.956933,135.955582 4.221155,140.351196 
	C17.939373,188.048538 49.289162,216.233826 98.113998,225.022217 
	C98.602974,225.110245 99.084770,225.238113 99.784958,225.673691 
	C67.073067,226.000000 34.146137,226.000000 1.000000,226.000000 
	C1.000000,193.312759 1.000000,160.625046 1.000000,127.468658 
z"/>
<path fill="#FFFEFE" opacity="1.000000" stroke="none" 
	d="
M100.531342,1.000000 
	C94.615196,2.516227 88.142784,3.736964 81.860703,5.599617 
	C54.035011,13.850001 32.648327,30.596096 17.254248,55.122868 
	C16.383795,56.509727 15.308483,57.768009 13.706282,59.359474 
	C7.311665,60.950848 6.103612,64.595917 9.415701,70.701355 
	C6.828378,80.324593 4.241055,89.947838 1.326865,99.785538 
	C1.000000,67.072693 1.000000,34.145393 1.000000,1.000000 
	C34.020573,1.000000 67.041626,1.000000 100.531342,1.000000 
z"/>
<path fill="#FFFFFE" opacity="1.000000" stroke="none" 
	d="
M213.890320,60.124039 
	C212.987717,59.280426 211.831818,58.589203 211.219238,57.571087 
	C191.872757,25.416901 163.590714,6.839415 126.234001,1.319717 
	C159.260269,1.000000 192.520523,1.000000 226.000000,1.000000 
	C226.000000,34.020573 226.000000,67.041626 226.000000,100.531342 
	C224.266159,93.871796 222.605682,86.724525 220.761032,79.625107 
	C220.058624,76.921768 218.933411,74.328285 218.088043,70.998413 
	C221.238174,63.487705 220.078918,60.731361 213.890320,60.124039 
z"/>
<path fill="#2B3133" opacity="1.000000" stroke="none" 
	d="
M213.676910,60.454071 
	C220.078918,60.731361 221.238174,63.487705 217.978165,70.630249 
	C211.087692,72.821434 206.889877,76.385857 206.637573,84.135986 
	C206.456009,89.713249 204.947220,95.280739 203.722092,100.783936 
	C200.762787,114.076927 192.401733,121.616974 179.024002,124.152443 
	C167.678055,126.302834 156.587906,126.043060 145.564926,122.537270 
	C134.410187,118.989571 127.799545,111.297066 125.116402,100.118713 
	C123.878090,94.959724 122.966789,89.717972 122.035080,84.490959 
	C121.235992,80.007988 118.987206,77.243271 114.170280,77.050034 
	C109.137428,76.848152 106.451950,79.523895 105.456337,84.164932 
	C104.621437,88.056801 103.824547,91.964844 103.229980,95.898842 
	C100.632645,113.084465 90.125801,122.284866 73.482414,124.638931 
	C63.115883,126.105194 52.738197,125.809563 42.516800,122.540108 
	C31.369543,118.974503 26.036150,110.845001 23.602041,100.167725 
	C22.533510,95.480591 21.156897,90.724945 21.080229,85.981651 
	C20.952246,78.063591 17.566254,73.133865 9.753908,70.780396 
	C6.103612,64.595917 7.311665,60.950848 13.485462,59.596352 
	C16.157619,59.952278 18.777960,61.275360 20.638750,60.576385 
	C28.815979,57.504749 36.760719,54.573502 45.728153,53.580647 
	C64.004524,51.557125 81.391411,51.181980 97.963577,61.394905 
	C103.281418,64.672134 110.387123,64.858139 117.484093,64.350609 
	C125.885651,63.749783 132.281631,59.870659 139.209183,56.483162 
	C147.659119,52.351246 156.854279,52.788223 165.814697,52.191593 
	C178.844101,51.324028 191.342911,53.866146 203.376266,59.101028 
	C206.408829,60.420288 210.083771,60.262909 213.676910,60.454071 
M35.850529,96.559158 
	C37.337070,101.395760 37.694675,107.040474 43.284313,109.313133 
	C55.018456,114.084038 66.921600,115.621056 79.052795,110.514648 
	C83.933914,108.460022 87.728401,105.234703 89.088142,100.130310 
	C90.616295,94.393677 91.737968,88.501945 92.455406,82.606972 
	C93.567398,73.470078 90.048500,68.356041 81.033424,66.134224 
	C66.505989,62.553833 52.014053,63.372437 37.645500,67.336952 
	C34.180099,68.293114 32.691475,70.686180 33.029900,74.041626 
	C33.761761,81.297997 34.721283,88.531410 35.850529,96.559158 
M181.084549,110.789490 
	C183.786407,108.516365 188.134308,106.688652 188.891800,103.889366 
	C191.514740,94.196396 193.139938,84.200241 194.521362,74.233063 
	C194.790787,72.289116 192.715302,68.595863 190.961105,68.018204 
	C175.101913,62.795666 158.998138,62.195820 142.971069,67.378288 
	C137.654205,69.097534 134.943588,73.272896 135.079300,78.844101 
	C135.200439,83.816330 135.299805,88.892006 136.360489,93.712624 
	C137.716522,99.875565 139.320801,106.138916 145.989105,109.348671 
	C157.256699,114.772278 168.680527,114.639793 181.084549,110.789490 
z"/>
<path fill="#67491C" opacity="1.000000" stroke="none" 
	d="
M115.946449,194.131119 
	C114.517921,194.470062 113.089394,194.809021 111.287605,194.589569 
	C110.914345,187.102158 110.914345,180.173157 110.914345,173.241348 
	C103.314659,171.997238 96.094330,170.815216 88.763306,169.615082 
	C88.446304,173.300232 88.151466,176.727768 87.856628,180.155319 
	C74.394699,174.971420 63.927158,166.015945 55.770580,154.299561 
	C54.852085,152.980209 55.184349,150.790115 54.936607,149.003815 
	C56.855206,149.186523 59.171104,148.735214 60.630932,149.650024 
	C75.210716,158.786514 90.736557,165.101624 108.071350,166.268509 
	C128.765045,167.661484 147.308823,161.184448 164.704575,150.607239 
	C165.556366,150.089325 166.322739,149.175980 167.218384,149.041107 
	C168.809387,148.801544 170.469025,149.017914 172.099960,149.043549 
	C172.020447,150.559784 172.547089,152.601791 171.762451,153.506470 
	C166.883301,159.132080 162.174957,165.060791 156.495361,169.790741 
	C151.474869,173.971786 145.263626,176.722961 139.119034,179.752716 
	C138.659958,176.144958 138.659958,172.889938 138.659958,169.514008 
	C130.720673,170.829041 123.593033,172.009644 115.946449,173.276199 
	C115.946449,180.204605 115.946449,187.167862 115.946449,194.131119 
z"/>
<path fill="#FDFDFB" opacity="1.000000" stroke="none" 
	d="
M88.073662,180.332596 
	C88.151466,176.727768 88.446304,173.300232 88.763306,169.615082 
	C96.094330,170.815216 103.314659,171.997238 110.914345,173.241348 
	C110.914345,180.173157 110.914345,187.102158 110.917206,194.495972 
	C108.434013,195.065353 105.947716,195.264084 103.461922,195.258087 
	C93.125847,195.233109 88.664505,190.868622 88.073662,180.332596 
z"/>
<path fill="#FDFDFB" opacity="1.000000" stroke="none" 
	d="
M116.236008,194.446503 
	C115.946449,187.167862 115.946449,180.204605 115.946449,173.276199 
	C123.593033,172.009644 130.720673,170.829041 138.659958,169.514008 
	C138.659958,172.889938 138.659958,176.144958 138.761597,179.875259 
	C137.819626,193.093338 131.364548,197.257889 116.236008,194.446503 
z"/>
<path fill="#FCCA4C" opacity="1.000000" stroke="none" 
	d="
M35.719105,96.166687 
	C34.721283,88.531410 33.761761,81.297997 33.029900,74.041626 
	C32.691475,70.686180 34.180099,68.293114 37.645500,67.336952 
	C52.014053,63.372437 66.505989,62.553833 81.033424,66.134224 
	C90.048500,68.356041 93.567398,73.470078 92.455406,82.606972 
	C91.737968,88.501945 90.616295,94.393677 89.088142,100.130310 
	C87.728401,105.234703 83.933914,108.460022 79.052795,110.514648 
	C66.921600,115.621056 55.018456,114.084038 43.284313,109.313133 
	C37.694675,107.040474 37.337070,101.395760 35.719105,96.166687 
M85.103699,80.762764 
	C84.002899,78.540794 83.215698,76.080978 81.743896,74.140388 
	C76.861588,67.703011 69.438850,67.823853 64.500496,74.212868 
	C58.759987,81.639664 58.697384,95.409798 64.370056,102.905106 
	C69.696930,109.943542 77.702682,109.700073 82.475922,102.240860 
	C86.581818,95.824509 86.939804,88.809502 85.103699,80.762764 
z"/>
<path fill="#FBCA4C" opacity="1.000000" stroke="none" 
	d="
M180.705246,110.889755 
	C168.680527,114.639793 157.256699,114.772278 145.989105,109.348671 
	C139.320801,106.138916 137.716522,99.875565 136.360489,93.712624 
	C135.299805,88.892006 135.200439,83.816330 135.079300,78.844101 
	C134.943588,73.272896 137.654205,69.097534 142.971069,67.378288 
	C158.998138,62.195820 175.101913,62.795666 190.961105,68.018204 
	C192.715302,68.595863 194.790787,72.289116 194.521362,74.233063 
	C193.139938,84.200241 191.514740,94.196396 188.891800,103.889366 
	C188.134308,106.688652 183.786407,108.516365 180.705246,110.889755 
M148.220978,71.553436 
	C140.134949,79.496002 138.777313,93.584686 145.231644,102.574692 
	C150.505249,109.920097 158.881012,109.890656 163.536880,102.191986 
	C168.758133,93.558411 168.800217,84.497398 163.903702,75.717026 
	C160.369095,69.378807 155.365997,68.086136 148.220978,71.553436 
z"/>
<path fill="#66481B" opacity="1.000000" stroke="none" 
	d="
M85.212868,81.162865 
	C86.939804,88.809502 86.581818,95.824509 82.475922,102.240860 
	C77.702682,109.700073 69.696930,109.943542 64.370056,102.905106 
	C58.697384,95.409798 58.759987,81.639664 64.500496,74.212868 
	C69.438850,67.823853 76.861588,67.703011 81.743896,74.140388 
	C83.215698,76.080978 84.002899,78.540794 85.212868,81.162865 
z"/>
<path fill="#66481B" opacity="1.000000" stroke="none" 
	d="
M148.525314,71.339569 
	C155.365997,68.086136 160.369095,69.378807 163.903702,75.717026 
	C168.800217,84.497398 168.758133,93.558411 163.536880,102.191986 
	C158.881012,109.890656 150.505249,109.920097 145.231644,102.574692 
	C138.777313,93.584686 140.134949,79.496002 148.525314,71.339569 
z"/>
</svg>